<svg viewBox="0 0 110 22" fill="none" xmlns="http://www.w3.org/2000/svg"><path d="M95.6.3h3.06l3.53 14.65 3.52-14.64h2.7l-4.93 21.4h-2.6l-5.28-21.4Zm-1.24 0h2.92l.45 14.12v7.29h-3.37v-21.4Zm12.72 0h2.92v21.4h-3.35v-7.28l.42-14.11Zm-23.37 0 2.64 9.65 2.62-9.64h3.79l-4.66 13.62v7.78h-3.51v-7.78l-4.66-13.62h3.78Zm-4.23 10.16v8.82c-.24.32-.6.7-1.08 1.13a6.58 6.58 0 0 1-4.6 1.59 5.42 5.42 0 0 1-4.63-2.25 8.37 8.37 0 0 1-1.27-2.85c-.29-1.15-.44-2.5-.44-4.07v-3.64c0-1.55.14-2.9.42-4.05.28-1.15.7-2.11 1.24-2.88a5.2 5.2 0 0 1 1.92-1.7c.76-.37 1.6-.56 2.55-.56 1.3 0 2.36.27 3.2.8a4.95 4.95 0 0 1 1.9 2.4c.43 1.06.7 2.36.78 3.9h-3.36a7.6 7.6 0 0 0-.37-2.12c-.18-.5-.44-.87-.77-1.09a2.27 2.27 0 0 0-1.3-.33c-.46 0-.86.1-1.2.3-.34.2-.63.52-.86.98-.23.45-.4 1.02-.5 1.73a17 17 0 0 0-.17 2.59v3.67c0 1 .06 1.87.19 2.59.12.71.3 1.3.55 1.74.26.46.58.78.96.99a3 3 0 0 0 1.36.3 2.55 2.55 0 0 0 1.62-.51l.4-.29v-3.94h-2.5v-3.25h5.96Zm-26.08-10.16h5.55c1.16 0 2.15.25 2.96.74a4.73 4.73 0 0 1 1.88 2.18c.44.96.66 2.14.66 3.55 0 1.16-.13 2.15-.38 2.97a5.35 5.35 0 0 1-2.76 3.34l-1.06.78h-4.5l-.02-3.57h3.13c.47 0 .87-.13 1.18-.38.31-.27.55-.64.7-1.1a6.71 6.71 0 0 0 .03-3.42 2.17 2.17 0 0 0-.66-1.11c-.3-.27-.68-.4-1.16-.4h-2.07v17.83h-3.48v-21.4Zm7.86 21.4-3.17-9.53 3.65-.02 3.24 9.35v.2h-3.72Zm-10.76-3.55v3.56h-7.52v-3.56h7.52Zm-6.44-17.84v21.4h-3.49v-21.4h3.49Zm5.43 8.67v3.45h-6.51v-3.45h6.51Zm.99-8.67v3.57h-7.5v-3.57h7.5Zm-17 13.86h-3.54v-3.57h3.54c.5 0 .9-.14 1.2-.42.32-.27.55-.65.7-1.13a6 6 0 0 0 .2-1.64c0-.62-.07-1.2-.22-1.72a3.02 3.02 0 0 0-.68-1.31c-.3-.33-.7-.5-1.2-.5h-2.42v17.83h-3.47v-21.4h5.9a5 5 0 0 1 3 .91c.84.6 1.48 1.44 1.93 2.51.45 1.06.68 2.28.68 3.65 0 1.38-.23 2.58-.68 3.6a5.3 5.3 0 0 1-1.93 2.35 5.3 5.3 0 0 1-3 .84Zm-12.03-13.87h3.47v14.7c0 1.65-.24 3-.73 4.03a4.86 4.86 0 0 1-2.01 2.26 6 6 0 0 1-2.94.71 6.1 6.1 0 0 1-2.96-.7 4.84 4.84 0 0 1-2.02-2.27 9.73 9.73 0 0 1-.72-4.03v-14.7h3.48v14.7a7 7 0 0 0 .25 2.15c.17.5.42.84.74 1.03.34.18.75.26 1.23.26.5 0 .9-.08 1.21-.26.33-.19.57-.53.74-1.03.17-.5.26-1.21.26-2.15v-14.7Zm-13.6 15.78a6 6 0 0 0-.09-1.05c-.05-.3-.17-.6-.35-.86a3.43 3.43 0 0 0-.78-.8 8.5 8.5 0 0 0-1.3-.82c-.65-.33-1.27-.69-1.87-1.06a8.86 8.86 0 0 1-1.63-1.32 5.69 5.69 0 0 1-1.15-1.76 6.4 6.4 0 0 1-.42-2.41c0-.9.13-1.72.4-2.46a5.4 5.4 0 0 1 2.86-3.1c.67-.28 1.4-.43 2.22-.43 1.11 0 2.07.29 2.88.86a5.53 5.53 0 0 1 1.9 2.33c.44 1 .67 2.13.67 3.41h-3.47c0-.6-.07-1.14-.22-1.6a2.25 2.25 0 0 0-.65-1.1 1.7 1.7 0 0 0-1.17-.4c-.44 0-.8.12-1.1.34-.29.22-.5.51-.64.9-.14.37-.2.79-.2 1.26 0 .35.06.67.2.96.14.27.33.52.58.75.24.21.53.42.87.63.34.2.71.4 1.11.6.79.38 1.48.8 2.09 1.26a6.79 6.79 0 0 1 2.42 3.43 8.6 8.6 0 0 1-.07 4.85 4.87 4.87 0 0 1-2.8 3.09 6.27 6.27 0 0 1-4.5.01 5.35 5.35 0 0 1-3.18-3.47c-.3-.9-.46-1.94-.46-3.16h3.48c0 .65.06 1.2.16 1.66.1.45.26.81.47 1.09a2.22 2.22 0 0 0 1.87.8c.46 0 .83-.12 1.1-.33.27-.22.47-.5.59-.87.12-.36.18-.77.18-1.23Z" fill="#fff"/></svg>